<svg width="2016" height="473" viewBox="0 0 2016 473" fill="none" xmlns="http://www.w3.org/2000/svg">
<rect y="17.6992" width="437.602" height="437.602" rx="35.3617" fill="#333333"/>
<path d="M94 117.096C94 106.209 94 100.765 97.3824 97.3824C100.765 94 106.209 94 117.096 94H186.386C197.273 94 202.717 94 206.1 97.3824C209.482 100.765 209.482 106.209 209.482 117.096V356.144C209.482 367.032 209.482 372.476 206.1 375.858C202.717 379.241 197.273 379.241 186.386 379.241H117.096C106.209 379.241 100.765 379.241 97.3824 375.858C94 372.476 94 367.032 94 356.144V117.096Z" fill="url(#paint0_linear_2129_55962)"/>
<path d="M227.959 104.498C227.959 98.7003 232.659 94 238.457 94H265.403C308.502 94 343.441 128.939 343.441 172.038V172.038C343.441 176.348 339.947 179.842 335.637 179.842H251.055C240.168 179.842 234.724 179.842 231.341 176.459C227.959 173.077 227.959 167.633 227.959 156.745V104.498Z" fill="white"/>
<rect x="227.959" y="193.699" width="115.482" height="85.8417" rx="11.5482" fill="url(#paint1_linear_2129_55962)"/>
<path d="M227.959 316.495C227.959 305.607 227.959 300.163 231.341 296.781C234.724 293.398 240.168 293.398 251.055 293.398H335.637C339.947 293.398 343.441 296.892 343.441 301.202V301.202C343.441 344.301 308.502 379.24 265.403 379.24H238.457C232.659 379.24 227.959 374.54 227.959 368.742V316.495Z" fill="white"/>
<path d="M610.422 68.3888C630.763 68.3888 648.607 72.3645 663.956 80.3161C679.489 88.2676 691.416 99.6402 699.738 114.434C708.244 129.043 712.497 146.055 712.497 165.472C712.497 184.888 708.244 201.901 699.738 216.51C691.416 230.933 679.489 242.121 663.956 250.073C648.607 258.024 630.763 262 610.422 262H542.741V68.3888H610.422ZM609.035 228.992C629.376 228.992 645.094 223.444 656.189 212.349C667.284 201.254 672.832 185.628 672.832 165.472C672.832 145.315 667.284 129.597 656.189 118.317C645.094 106.852 629.376 101.12 609.035 101.12H581.574V228.992H609.035ZM788.721 99.7327V148.274H853.905V179.063H788.721V230.379H862.226V262H749.887V68.1114H862.226V99.7327H788.721ZM1071.43 262H1032.6L944.671 129.135V262H905.838V68.1114H944.671L1032.6 201.254V68.1114H1071.43V262ZM1249.89 68.3888V99.7327H1198.29V262H1159.46V99.7327H1107.87V68.3888H1249.89ZM1386.4 262L1343.68 186.553H1325.37V262H1286.54V68.3888H1359.22C1374.19 68.3888 1386.95 71.0701 1397.49 76.4328C1408.03 81.6105 1415.89 88.73 1421.07 97.791C1426.43 106.667 1429.12 116.653 1429.12 127.748C1429.12 140.508 1425.42 152.065 1418.02 162.421C1410.62 172.591 1399.62 179.618 1385.01 183.501L1431.33 262H1386.4ZM1325.37 157.428H1357.83C1368.37 157.428 1376.23 154.931 1381.41 149.938C1386.58 144.761 1389.17 137.641 1389.17 128.58C1389.17 119.704 1386.58 112.862 1381.41 108.054C1376.23 103.061 1368.37 100.565 1357.83 100.565H1325.37V157.428ZM1511.39 99.7327V148.274H1576.58V179.063H1511.39V230.379H1584.9V262H1472.56V68.1114H1584.9V99.7327H1511.39ZM1747.23 225.108H1670.12L1657.36 262H1616.58L1686.21 68.1114H1731.42L1801.04 262H1759.99L1747.23 225.108ZM1736.69 194.042L1708.67 113.047L1680.66 194.042H1736.69ZM1903.07 68.3888C1923.41 68.3888 1941.25 72.3645 1956.6 80.3161C1972.13 88.2676 1984.06 99.6402 1992.38 114.434C2000.89 129.043 2005.14 146.055 2005.14 165.472C2005.14 184.888 2000.89 201.901 1992.38 216.51C1984.06 230.933 1972.13 242.121 1956.6 250.073C1941.25 258.024 1923.41 262 1903.07 262H1835.39V68.3888H1903.07ZM1901.68 228.992C1922.02 228.992 1937.74 223.444 1948.83 212.349C1959.93 201.254 1965.48 185.628 1965.48 165.472C1965.48 145.315 1959.93 129.597 1948.83 118.317C1937.74 106.852 1922.02 101.12 1901.68 101.12H1874.22V228.992H1901.68Z" fill="#333333"/>
<path d="M560.325 368.975C567.355 368.975 573.499 370.337 578.755 373.06C584.075 375.72 588.16 379.583 591.01 384.65C593.924 389.653 595.38 395.512 595.38 402.225C595.38 408.938 593.924 414.765 591.01 419.705C588.16 424.645 584.075 428.445 578.755 431.105C573.499 433.702 567.355 435 560.325 435H538.76V368.975H560.325ZM560.325 426.165C568.052 426.165 573.974 424.075 578.09 419.895C582.207 415.715 584.265 409.825 584.265 402.225C584.265 394.562 582.207 388.577 578.09 384.27C573.974 379.963 568.052 377.81 560.325 377.81H549.59V426.165H560.325ZM620.744 368.975V435H609.914V368.975H620.744ZM686.548 387.975C684.838 384.682 682.463 382.212 679.423 380.565C676.383 378.855 672.868 378 668.878 378C664.508 378 660.613 378.982 657.193 380.945C653.773 382.908 651.081 385.695 649.118 389.305C647.218 392.915 646.268 397.095 646.268 401.845C646.268 406.595 647.218 410.807 649.118 414.48C651.081 418.09 653.773 420.877 657.193 422.84C660.613 424.803 664.508 425.785 668.878 425.785C674.768 425.785 679.549 424.138 683.223 420.845C686.896 417.552 689.144 413.087 689.968 407.45H665.173V398.805H701.558V407.26C700.861 412.39 699.024 417.108 696.048 421.415C693.134 425.722 689.303 429.173 684.553 431.77C679.866 434.303 674.641 435.57 668.878 435.57C662.671 435.57 657.003 434.145 651.873 431.295C646.743 428.382 642.658 424.36 639.618 419.23C636.641 414.1 635.153 408.305 635.153 401.845C635.153 395.385 636.641 389.59 639.618 384.46C642.658 379.33 646.743 375.34 651.873 372.49C657.066 369.577 662.734 368.12 668.878 368.12C675.908 368.12 682.146 369.862 687.593 373.345C693.103 376.765 697.093 381.642 699.563 387.975H686.548ZM726.869 368.975V435H716.039V368.975H726.869ZM787.543 368.975V377.81H769.968V435H759.138V377.81H741.468V368.975H787.543ZM842.116 421.51H814.471L809.721 435H798.416L822.071 368.88H834.611L858.266 435H846.866L842.116 421.51ZM839.076 412.675L828.341 381.99L817.511 412.675H839.076ZM883.181 426.26H905.506V435H872.351V368.975H883.181V426.26ZM968.406 368.975C975.436 368.975 981.579 370.337 986.836 373.06C992.156 375.72 996.241 379.583 999.091 384.65C1002 389.653 1003.46 395.512 1003.46 402.225C1003.46 408.938 1002 414.765 999.091 419.705C996.241 424.645 992.156 428.445 986.836 431.105C981.579 433.702 975.436 435 968.406 435H946.841V368.975H968.406ZM968.406 426.165C976.133 426.165 982.054 424.075 986.171 419.895C990.288 415.715 992.346 409.825 992.346 402.225C992.346 394.562 990.288 388.577 986.171 384.27C982.054 379.963 976.133 377.81 968.406 377.81H957.671V426.165H968.406ZM1028.82 377.715V397.095H1051.62V405.93H1028.82V426.165H1054.47V435H1017.99V368.88H1054.47V377.715H1028.82ZM1125.86 435H1115.03L1082.44 385.695V435H1071.61V368.88H1082.44L1115.03 418.09V368.88H1125.86V435ZM1186.54 368.975V377.81H1168.96V435H1158.13V377.81H1140.46V368.975H1186.54ZM1212.13 368.975V435H1201.3V368.975H1212.13ZM1251.91 435.665C1247.47 435.665 1243.48 434.905 1239.94 433.385C1236.39 431.802 1233.6 429.585 1231.58 426.735C1229.55 423.885 1228.54 420.56 1228.54 416.76H1240.13C1240.38 419.61 1241.49 421.953 1243.45 423.79C1245.48 425.627 1248.3 426.545 1251.91 426.545C1255.64 426.545 1258.56 425.658 1260.65 423.885C1262.74 422.048 1263.78 419.705 1263.78 416.855C1263.78 414.638 1263.12 412.833 1261.79 411.44C1260.52 410.047 1258.91 408.97 1256.94 408.21C1255.04 407.45 1252.38 406.627 1248.96 405.74C1244.66 404.6 1241.14 403.46 1238.42 402.32C1235.76 401.117 1233.48 399.28 1231.58 396.81C1229.68 394.34 1228.73 391.047 1228.73 386.93C1228.73 383.13 1229.68 379.805 1231.58 376.955C1233.48 374.105 1236.14 371.92 1239.56 370.4C1242.98 368.88 1246.94 368.12 1251.43 368.12C1257.83 368.12 1263.05 369.735 1267.11 372.965C1271.22 376.132 1273.5 380.502 1273.95 386.075H1261.98C1261.79 383.668 1260.65 381.61 1258.56 379.9C1256.47 378.19 1253.71 377.335 1250.29 377.335C1247.19 377.335 1244.66 378.127 1242.69 379.71C1240.73 381.293 1239.75 383.573 1239.75 386.55C1239.75 388.577 1240.35 390.255 1241.55 391.585C1242.82 392.852 1244.4 393.865 1246.3 394.625C1248.2 395.385 1250.8 396.208 1254.09 397.095C1258.46 398.298 1262.01 399.502 1264.73 400.705C1267.52 401.908 1269.86 403.777 1271.76 406.31C1273.73 408.78 1274.71 412.105 1274.71 416.285C1274.71 419.642 1273.79 422.808 1271.95 425.785C1270.18 428.762 1267.55 431.168 1264.07 433.005C1260.65 434.778 1256.59 435.665 1251.91 435.665ZM1333.94 368.975V377.81H1316.37V435H1305.54V377.81H1287.87V368.975H1333.94ZM1383 435L1367.8 408.59H1359.54V435H1348.71V368.975H1371.51C1376.58 368.975 1380.85 369.862 1384.33 371.635C1387.88 373.408 1390.51 375.783 1392.22 378.76C1393.99 381.737 1394.88 385.062 1394.88 388.735C1394.88 393.042 1393.61 396.968 1391.08 400.515C1388.61 403.998 1384.78 406.373 1379.58 407.64L1395.92 435H1383ZM1359.54 399.945H1371.51C1375.56 399.945 1378.6 398.932 1380.63 396.905C1382.72 394.878 1383.76 392.155 1383.76 388.735C1383.76 385.315 1382.75 382.655 1380.72 380.755C1378.7 378.792 1375.63 377.81 1371.51 377.81H1359.54V399.945ZM1461.46 368.975L1439.61 411.06V435H1428.78V411.06L1406.83 368.975H1418.9L1434.19 401.37L1449.49 368.975H1461.46ZM1548.5 388.64C1548.5 391.997 1547.71 395.163 1546.13 398.14C1544.54 401.117 1542.01 403.555 1538.53 405.455C1535.04 407.292 1530.58 408.21 1525.13 408.21H1513.16V435H1502.33V368.975H1525.13C1530.2 368.975 1534.47 369.862 1537.96 371.635C1541.5 373.345 1544.13 375.688 1545.84 378.665C1547.61 381.642 1548.5 384.967 1548.5 388.64ZM1525.13 399.375C1529.25 399.375 1532.32 398.457 1534.35 396.62C1536.37 394.72 1537.39 392.06 1537.39 388.64C1537.39 381.42 1533.3 377.81 1525.13 377.81H1513.16V399.375H1525.13ZM1573.46 426.26H1595.79V435H1562.63V368.975H1573.46V426.26ZM1648.45 421.51H1620.8L1616.05 435H1604.75L1628.4 368.88H1640.94L1664.6 435H1653.2L1648.45 421.51ZM1645.41 412.675L1634.67 381.99L1623.84 412.675H1645.41ZM1721.34 368.975V377.81H1703.76V435H1692.93V377.81H1675.26V368.975H1721.34ZM1774.96 368.975V377.81H1746.94V397.285H1768.79V406.12H1746.94V435H1736.11V368.975H1774.96ZM1818.91 435.665C1812.77 435.665 1807.1 434.24 1801.91 431.39C1796.78 428.477 1792.69 424.455 1789.65 419.325C1786.68 414.132 1785.19 408.305 1785.19 401.845C1785.19 395.385 1786.68 389.59 1789.65 384.46C1792.69 379.33 1796.78 375.34 1801.91 372.49C1807.1 369.577 1812.77 368.12 1818.91 368.12C1825.12 368.12 1830.79 369.577 1835.92 372.49C1841.11 375.34 1845.2 379.33 1848.17 384.46C1851.15 389.59 1852.64 395.385 1852.64 401.845C1852.64 408.305 1851.15 414.132 1848.17 419.325C1845.2 424.455 1841.11 428.477 1835.92 431.39C1830.79 434.24 1825.12 435.665 1818.91 435.665ZM1818.91 426.26C1823.28 426.26 1827.18 425.278 1830.6 423.315C1834.02 421.288 1836.68 418.438 1838.58 414.765C1840.54 411.028 1841.52 406.722 1841.52 401.845C1841.52 396.968 1840.54 392.693 1838.58 389.02C1836.68 385.347 1834.02 382.528 1830.6 380.565C1827.18 378.602 1823.28 377.62 1818.91 377.62C1814.54 377.62 1810.65 378.602 1807.23 380.565C1803.81 382.528 1801.12 385.347 1799.15 389.02C1797.25 392.693 1796.3 396.968 1796.3 401.845C1796.3 406.722 1797.25 411.028 1799.15 414.765C1801.12 418.438 1803.81 421.288 1807.23 423.315C1810.65 425.278 1814.54 426.26 1818.91 426.26ZM1901.39 435L1886.19 408.59H1877.92V435H1867.09V368.975H1889.89C1894.96 368.975 1899.24 369.862 1902.72 371.635C1906.27 373.408 1908.89 375.783 1910.6 378.76C1912.38 381.737 1913.26 385.062 1913.26 388.735C1913.26 393.042 1912 396.968 1909.46 400.515C1906.99 403.998 1903.16 406.373 1897.97 407.64L1914.31 435H1901.39ZM1877.92 399.945H1889.89C1893.95 399.945 1896.99 398.932 1899.01 396.905C1901.1 394.878 1902.15 392.155 1902.15 388.735C1902.15 385.315 1901.14 382.655 1899.11 380.755C1897.08 378.792 1894.01 377.81 1889.89 377.81H1877.92V399.945ZM2000.46 368.975V435H1989.63V389.78L1969.49 435H1961.98L1941.75 389.78V435H1930.92V368.975H1942.6L1965.78 420.75L1988.87 368.975H2000.46Z" fill="#333333" fill-opacity="0.9"/>
<defs>
<linearGradient id="paint0_linear_2129_55962" x1="94" y1="94" x2="94" y2="379.241" gradientUnits="userSpaceOnUse">
<stop stop-color="#4776E6"/>
<stop offset="1" stop-color="#8E54E9"/>
</linearGradient>
<linearGradient id="paint1_linear_2129_55962" x1="227.959" y1="193.699" x2="227.959" y2="279.541" gradientUnits="userSpaceOnUse">
<stop stop-color="#4776E6"/>
<stop offset="1" stop-color="#8E54E9"/>
</linearGradient>
</defs>
</svg>
